<?xml version="1.0" encoding="UTF-8" standalone="no"?>
<!-- Created with Inkscape (http://www.inkscape.org/) -->

<svg
   width="140.01979mm"
   height="86.277321mm"
   viewBox="0 0 140.01979 86.277321"
   version="1.1"
   id="svg5"
   inkscape:version="1.1 (c68e22c387, 2021-05-23)"
   sodipodi:docname="drawing.svg"
   xmlns:inkscape="http://www.inkscape.org/namespaces/inkscape"
   xmlns:sodipodi="http://sodipodi.sourceforge.net/DTD/sodipodi-0.dtd"
   xmlns="http://www.w3.org/2000/svg"
   xmlns:svg="http://www.w3.org/2000/svg">
  <sodipodi:namedview
     id="namedview7"
     pagecolor="#ffffff"
     bordercolor="#000000"
     borderopacity="0.25"
     inkscape:pageshadow="2"
     inkscape:pageopacity="0.0"
     inkscape:pagecheckerboard="0"
     inkscape:document-units="mm"
     showgrid="false"
     lock-margins="true"
     fit-margin-top="1"
     fit-margin-left="1"
     fit-margin-right="1"
     fit-margin-bottom="1"
     inkscape:zoom="0.68595679"
     inkscape:cx="311.973"
     inkscape:cy="193.88976"
     inkscape:window-width="1920"
     inkscape:window-height="974"
     inkscape:window-x="-11"
     inkscape:window-y="-11"
     inkscape:window-maximized="1"
     inkscape:current-layer="layer1" />
  <defs
     id="defs2">
    <clipPath
       clipPathUnits="userSpaceOnUse"
       id="clipPath27">
      <path
         d="M 0,720 H 1280 V 0 H 0 Z"
         id="path25" />
    </clipPath>
  </defs>
  <g
     inkscape:label="Layer 1"
     inkscape:groupmode="layer"
     id="layer1"
     transform="translate(112.14847,-97.261338)">
    <g
       id="g589">
      <g
         id="g29"
         transform="matrix(0.35277777,0,0,-0.35277777,-100.29209,164.06775)">
        <path
           d="m 0,0 c 0.447,-5.06 0.731,-10.094 0.852,-15.103 0.12,-5.008 0.18,-11.145 0.18,-18.407 0,-1.24 0.078,-2.316 0.233,-3.228 0.069,-0.404 0.183,-0.799 0.329,-1.186 L 1.051,-38.3 -25.405,0 h -5.369 c 1.033,-17.212 1.033,-34.423 0,-51.635 h 7.022 c -0.448,4.991 -0.732,9.922 -0.852,14.794 -0.122,4.87 -0.181,10.869 -0.181,17.994 0,1.653 -0.044,2.771 -0.13,3.357 -0.069,0.473 -0.263,1.077 -0.569,1.798 l 0.518,0.385 26.463,-38.328 H 7.022 C 5.99,-34.423 5.99,-17.212 7.022,0 Z"
           style="fill:#000100;fill-opacity:1;fill-rule:nonzero;stroke:none"
           id="path31" />
      </g>
      <g
         id="g33"
         transform="matrix(0.35277777,0,0,-0.35277777,-84.344524,168.96765)">
        <path
           d="m 0,0 c 0.121,-4.613 0.181,-10.397 0.181,-17.349 0,-5.474 -0.974,-9.613 -2.918,-12.418 -1.946,-2.806 -4.811,-4.209 -8.597,-4.209 -3.649,0 -6.464,1.333 -8.442,4.001 -1.98,2.668 -2.97,6.876 -2.97,12.626 0,6.952 0.06,12.736 0.181,17.349 0.121,4.613 0.404,9.242 0.852,13.889 h -9.243 c 0.448,-4.647 0.731,-9.276 0.852,-13.889 0.121,-4.613 0.182,-10.397 0.182,-17.349 0,-14.08 6.229,-21.12 18.691,-21.12 3.855,0 6.997,0.707 9.423,2.118 2.427,1.411 4.235,3.665 5.422,6.764 1.188,3.098 1.782,7.178 1.782,12.238 0,6.952 0.059,12.736 0.18,17.349 0.121,4.613 0.404,9.242 0.853,13.889 H -0.852 C -0.405,9.242 -0.121,4.613 0,0"
           style="fill:#000100;fill-opacity:1;fill-rule:nonzero;stroke:none"
           id="path35" />
      </g>
      <g
         id="g37"
         transform="matrix(0.35277777,0,0,-0.35277777,-70.12892,173.79496)">
        <path
           d="m 0,0 c -1.738,1.24 -4.19,2.702 -7.358,4.389 l -2.581,1.446 c -1.963,1.102 -3.537,2.125 -4.725,3.073 -1.188,0.946 -2.1,2.021 -2.737,3.226 -0.637,1.205 -0.955,2.599 -0.955,4.183 0,2.409 0.739,4.26 2.221,5.551 1.48,1.291 3.527,1.936 6.144,1.936 2.788,0 4.957,-0.671 6.506,-2.014 1.549,-1.342 2.513,-3.098 2.892,-5.267 l 5.783,2.995 c -1.549,3.029 -3.495,5.249 -5.835,6.661 -2.341,1.411 -5.318,2.117 -8.933,2.117 -2.684,0 -5.224,-0.387 -7.615,-1.162 -2.394,-0.774 -4.382,-2.108 -5.965,-4.001 -1.584,-1.894 -2.375,-4.407 -2.375,-7.539 0,-2.582 0.542,-4.837 1.627,-6.764 1.084,-1.929 2.486,-3.58 4.208,-4.957 1.721,-1.377 3.873,-2.772 6.454,-4.182 0.344,-0.207 1.084,-0.604 2.22,-1.188 l 0.775,-0.413 c 1.893,-1.032 3.477,-2.014 4.75,-2.944 1.274,-0.929 2.332,-2.039 3.177,-3.33 0.842,-1.291 1.264,-2.728 1.264,-4.312 0,-1.376 -0.353,-2.658 -1.059,-3.846 -0.706,-1.188 -1.789,-2.143 -3.252,-2.866 -1.464,-0.723 -3.279,-1.085 -5.448,-1.085 -2.823,0 -5.25,0.664 -7.281,1.989 -2.031,1.325 -3.529,3.227 -4.492,5.705 l -5.008,-4.44 c 2.099,-2.789 4.482,-4.776 7.151,-5.964 2.667,-1.188 5.947,-1.782 9.836,-1.782 4.716,0 8.666,0.93 11.851,2.789 3.184,1.858 4.776,5.249 4.776,10.172 0,2.822 -0.567,5.189 -1.703,7.1 C 3.177,-2.814 1.738,-1.239 0,0"
           style="fill:#000100;fill-opacity:1;fill-rule:nonzero;stroke:none"
           id="path39" />
      </g>
      <g
         id="g41"
         transform="matrix(0.35277777,0,0,-0.35277777,-55.900722,176.14457)">
        <path
           d="m 0,0 h -18.133 c 0.283,1.131 0.563,2.266 0.857,3.382 1.755,6.661 4.044,14.759 6.867,24.294 0.206,0.694 0.399,1.375 0.602,2.065 h 1.517 c 0.206,-0.69 0.412,-1.371 0.618,-2.065 C -4.883,18.141 -2.611,10.043 -0.856,3.382 -0.562,2.266 -0.282,1.131 0,0 m -5.348,34.233 h -3.15 -1.136 -2.066 -2.117 c -4.269,-17.452 -9.38,-34.664 -15.335,-51.635 h 7.229 c 0.822,4.408 1.732,8.703 2.709,12.91 H 1.081 c 0.978,-4.207 1.887,-8.502 2.71,-12.91 h 8.984 C 6.786,-0.431 1.674,16.781 -2.56,34.233 Z"
           style="fill:#000100;fill-opacity:1;fill-rule:nonzero;stroke:none"
           id="path43" />
      </g>
      <g
         id="g45"
         transform="matrix(0.35277777,0,0,-0.35277777,-37.987055,164.06775)">
        <path
           d="m 0,0 c 0.447,-5.06 0.731,-10.094 0.852,-15.103 0.12,-5.008 0.181,-11.145 0.181,-18.407 0,-1.24 0.078,-2.316 0.232,-3.228 0.069,-0.404 0.183,-0.799 0.329,-1.186 L 1.051,-38.299 -25.404,0 h -5.371 c 1.033,-17.212 1.033,-34.423 0,-51.635 h 7.022 c -0.447,4.991 -0.731,9.922 -0.851,14.794 -0.121,4.87 -0.181,10.869 -0.181,17.994 0,1.653 -0.044,2.771 -0.129,3.357 -0.07,0.473 -0.264,1.077 -0.57,1.798 l 0.518,0.385 26.463,-38.328 H 7.023 C 5.99,-34.423 5.99,-17.212 7.023,0 Z"
           style="fill:#000100;fill-opacity:1;fill-rule:nonzero;stroke:none"
           id="path47" />
      </g>
      <g
         id="g49"
         transform="matrix(0.35277777,0,0,-0.35277777,-25.225108,165.70206)">
        <path
           d="m 0,0 c 5.207,-0.081 10.412,-0.321 15.614,-0.737 v 5.37 H 0.175 -7.726 -23.165 v -5.37 c 5.207,0.416 10.412,0.656 15.614,0.737 0.275,-7.726 0.387,-15.12 0.315,-22.14 -0.086,-8.416 -0.438,-16.704 -1.058,-24.862 H 0.743 C 0.122,-38.844 -0.23,-30.556 -0.316,-22.14 -0.388,-15.12 -0.275,-7.726 0,0"
           style="fill:#000100;fill-opacity:1;fill-rule:nonzero;stroke:none"
           id="path51" />
      </g>
      <g
         id="g53"
         transform="matrix(0.35277777,0,0,-0.35277777,-9.4580229,176.14457)">
        <path
           d="m 0,0 h -18.133 c 0.283,1.131 0.563,2.266 0.857,3.382 1.755,6.661 4.044,14.759 6.867,24.294 0.206,0.694 0.399,1.375 0.602,2.065 h 1.517 c 0.206,-0.69 0.411,-1.371 0.618,-2.065 2.789,-9.535 5.06,-17.633 6.816,-24.294 C -0.562,2.266 -0.282,1.131 0,0 m -5.348,34.233 h -3.15 -1.136 -2.066 -2.117 c -4.269,-17.452 -9.38,-34.664 -15.335,-51.635 h 7.229 c 0.822,4.408 1.732,8.703 2.709,12.91 H 1.081 c 0.978,-4.207 1.887,-8.502 2.71,-12.91 h 8.984 C 6.786,-0.431 1.674,16.781 -2.56,34.233 Z"
           style="fill:#000100;fill-opacity:1;fill-rule:nonzero;stroke:none"
           id="path55" />
      </g>
      <g
         id="g57"
         transform="matrix(0.35277777,0,0,-0.35277777,3.5920029,172.24648)">
        <path
           d="m 0,0 h -1.6 -7.768 c -0.026,6.225 0.065,12.455 0.28,18.692 H 0 c 2.822,0 5.026,-0.689 6.609,-2.066 C 8.192,15.249 8.984,12.978 8.984,9.811 8.984,6.643 8.192,4.217 6.609,2.53 5.026,0.843 2.822,0 0,0 m 7.071,-3.169 c 0.244,0.097 0.486,0.195 0.726,0.303 2.408,1.085 4.354,2.728 5.835,4.931 1.479,2.203 2.22,4.888 2.22,8.055 0,4.509 -1.472,7.814 -4.415,9.914 -2.943,2.1 -6.756,3.15 -11.437,3.15 h -16.989 c 1.033,-17.212 1.033,-34.423 0,-51.635 h 8.934 c -0.723,7.401 -1.145,15.103 -1.266,23.107 -0.004,0.284 -0.003,0.568 -0.007,0.852 H 0 c 0.188,0 0.374,0.009 0.561,0.014 1.898,-3.979 3.563,-7.601 4.989,-10.857 1.945,-4.441 3.641,-8.814 5.087,-13.116 h 9.294 c -2.513,4.199 -4.854,8.476 -7.022,12.832 -1.846,3.705 -3.793,7.858 -5.838,12.45"
           style="fill:#000100;fill-opacity:1;fill-rule:nonzero;stroke:none"
           id="path59" />
      </g>
      <g
         id="g61"
         transform="matrix(0.35277777,0,0,-0.35277777,15.968012,176.14457)">
        <path
           d="m 0,0 c 0.282,1.131 0.562,2.266 0.857,3.382 1.754,6.661 4.043,14.759 6.866,24.294 0.206,0.694 0.399,1.375 0.602,2.065 H 9.842 C 10.048,29.051 10.254,28.37 10.46,27.676 13.249,18.141 15.52,10.043 17.276,3.382 17.57,2.266 17.85,1.131 18.133,0 Z M 15.573,34.233 H 12.783 9.634 8.498 6.432 4.316 C 0.047,16.781 -5.066,-0.431 -11.02,-17.402 h 7.228 c 0.823,4.408 1.733,8.703 2.71,12.91 h 20.296 c 0.977,-4.207 1.887,-8.502 2.709,-12.91 h 8.984 C 24.918,-0.431 19.806,16.781 15.573,34.233"
           style="fill:#000100;fill-opacity:1;fill-rule:nonzero;stroke:none"
           id="path63" />
      </g>
      <g
         id="g65"
         transform="matrix(0.35277777,0,0,-0.35277777,-47.432468,153.6583)">
        <path
           d="m 0,0 0.014,0.081 c 0.685,3.654 0.685,9.644 0.685,14.456 0,7.683 -2.897,12.443 -12.369,20.284 -0.517,-1.394 -0.708,-2.896 -0.783,-4.827 0.234,-10.299 0.222,-15.236 -0.454,-18.918 h 4.146 v 8.538 c 0,4.384 0,6.461 -0.923,8.538 l 0.461,0.23 c 3.923,-3.692 6.23,-7.384 6.23,-15.46 0.231,-5.076 0,-9.23 -0.923,-12.922 z"
           style="fill:#d9ac6b;fill-opacity:1;fill-rule:nonzero;stroke:none"
           id="path67" />
      </g>
      <g
         id="g69"
         transform="matrix(0.35277777,0,0,-0.35277777,-42.301492,154.96075)">
        <path
           d="m 0,0 v 17.537 c 0,14.459 -9.482,25.416 -17.655,30.451 -4.662,-3.902 -7.002,-6.182 -8.179,-8.585 0.021,-0.019 0.042,-0.039 0.063,-0.059 8.706,-7.183 12.849,-12.176 12.849,-21.115 0,-4.815 0,-10.797 -0.685,-14.537 h 4.146 v 13.845 c 0,8.076 -2.538,16.153 -12.23,21.921 1.154,1.385 2.539,3 4.154,4.385 10.614,-7.384 13.845,-15.922 13.845,-25.383 0,-9.23 0,-14.768 -0.923,-18.46 z"
           style="fill:#d9ac6b;fill-opacity:1;fill-rule:nonzero;stroke:none"
           id="path71" />
      </g>
      <g
         id="g73"
         transform="matrix(0.35277777,0,0,-0.35277777,-50.523296,124.43429)">
        <path
           d="m 0,0 h -0.231 l -3.461,-1.442 v -14.941 c 0,-3.264 0.432,-6.269 1.302,-9.038 l 3.749,2.499 c 4.999,3.25 8.102,9.998 8.102,17.615 v 5.036 L 5.769,0.923 v -8.076 c 0,-4.846 -1.385,-8.769 -6,-13.153 l -0.461,0.231 C -0.231,-18.691 0,-15.922 0,-14.076 Z"
           style="fill:#d9ac6b;fill-opacity:1;fill-rule:nonzero;stroke:none"
           id="path75" />
      </g>
      <g
         id="g77"
         transform="matrix(0.35277777,0,0,-0.35277777,-53.698013,149.7509)">
        <path
           d="m 0,0 h 3.908 l 0.025,0.099 c 0.675,3.609 0.686,8.506 0.451,18.812 v 0.014 l 10e-4,0.014 c 0.084,2.202 0.322,3.89 0.975,5.473 -13.062,12.379 -14.59,24.107 -14.59,31.891 0,4.154 0,5.572 -0.383,8.013 l -4.232,-1.782 c 0.692,-2.539 0.923,-6.923 1.154,-9.923 C -11.538,41.074 -6.923,31.382 2.077,22.383 1.154,19.845 0.923,16.383 0.923,12.922 0.923,9.692 0.923,3.692 0,0"
           style="fill:#d9ac6b;fill-opacity:1;fill-rule:nonzero;stroke:none"
           id="path79" />
      </g>
      <g
         id="g81"
         transform="matrix(0.35277777,0,0,-0.35277777,-42.138685,132.16768)">
        <path
           d="m 0,0 h 0.231 c 1.615,-4.846 7.845,-13.614 12.922,-15.691 v -0.231 -0.231 C 8.076,-18.229 1.846,-26.998 0.231,-31.844 H 0 -0.231 c -1.615,4.846 -7.845,13.615 -12.922,15.691 v 0.231 0.231 C -8.076,-13.614 -1.846,-4.846 -0.231,0 Z M -17.365,-16.003 C -10.133,-20.554 -1.997,-29.587 0,-41.521 1.997,-29.586 10.133,-20.554 17.365,-16.003 10.866,-10.744 6.912,-6.529 4.19,-1.967 2.03,1.653 0.658,5.545 0,9.98 -0.658,5.545 -2.03,1.653 -4.19,-1.967 c -2.721,-4.561 -6.674,-8.774 -13.175,-14.036"
           style="fill:#d9ac6b;fill-opacity:1;fill-rule:nonzero;stroke:none"
           id="path83" />
      </g>
      <g
         id="g85"
         transform="matrix(0.35277777,0,0,-0.35277777,-55.488925,126.38801)">
        <path
           d="m 0,0 -3.66,-1.541 c 0.429,-2.658 0.43,-4.159 0.43,-8.381 0,-15.48 7.813,-25.048 14.079,-31.011 1.266,2.408 3.653,4.749 8.145,8.517 -6.413,5.585 -9.533,12.648 -9.533,21.571 V 3.711 L 5.538,2.077 C 6,-1.154 6,-5.307 6,-8.769 c 0,-8.768 2.538,-17.767 8.537,-23.305 -1.615,-1.385 -2.769,-2.769 -3.922,-4.154 -6.231,5.307 -10.384,15.922 -10.384,25.613 L 0.231,0 Z"
           style="fill:#d9ac6b;fill-opacity:1;fill-rule:nonzero;stroke:none"
           id="path87" />
      </g>
      <g
         id="g89"
         transform="matrix(0.35277777,0,0,-0.35277777,-23.158359,115.3237)">
        <path
           d="m 0,0 c -0.919,0.36 -1.823,0.581 -2.723,0.767 -2.632,0.529 -5.331,0.622 -7.975,0.453 -3.515,-0.168 -6.966,-0.842 -10.407,-1.554 -4.794,-0.922 -9.596,-1.748 -14.384,-2.674 -0.099,0.867 -0.26,1.721 -0.48,2.558 4.703,1.262 9.374,2.622 14.081,3.891 6.685,1.699 14.064,3.866 19.034,8.922 0.157,0.161 0.049,0.454 -0.174,0.477 -0.975,0.129 -1.902,0.126 -2.817,0.089 -2.672,-0.119 -5.303,-0.678 -7.818,-1.478 -3.356,-1.008 -6.528,-2.492 -9.681,-4.01 -4.4,-2.044 -8.829,-3.995 -13.222,-6.04 -0.314,0.822 -0.687,1.621 -1.118,2.393 4.24,2.35 8.425,4.787 12.668,7.145 6.048,3.247 12.656,7.118 16.228,13.207 0.113,0.194 -0.063,0.452 -0.284,0.421 -0.974,-0.109 -1.87,-0.334 -2.745,-0.589 -5.935,-1.785 -10.896,-5.596 -15.579,-9.51 -2.692,-2.22 -5.469,-4.314 -8.183,-6.501 -1.051,-0.838 -2.097,-1.682 -3.14,-2.531 -0.51,0.723 -1.075,1.415 -1.692,2.071 3.521,3.283 6.969,6.637 10.492,9.928 5.074,4.603 10.54,9.948 12.522,16.708 0.063,0.216 -0.17,0.423 -0.377,0.34 -0.917,-0.34 -1.731,-0.774 -2.518,-1.231 -5.318,-3.159 -9.201,-8.047 -12.79,-12.969 -2.07,-2.801 -4.254,-5.498 -6.353,-8.272 -0.801,-1.046 -1.595,-2.098 -2.386,-3.153 -0.687,0.594 -1.41,1.132 -2.164,1.612 2.607,4.014 5.128,8.077 7.735,12.098 3.803,5.683 7.8,12.165 8.082,19.193 0.009,0.224 -0.267,0.369 -0.448,0.238 -0.807,-0.55 -1.49,-1.165 -2.142,-1.797 -4.388,-4.337 -6.966,-10.006 -9.25,-15.636 -1.327,-3.21 -2.789,-6.348 -4.151,-9.539 -0.517,-1.194 -1.026,-2.392 -1.532,-3.592 -0.814,0.404 -1.655,0.745 -2.519,1.022 1.55,4.503 3.007,9.031 4.556,13.541 2.314,6.424 4.621,13.671 3.192,20.548 -0.046,0.22 -0.348,0.293 -0.493,0.123 -0.649,-0.727 -1.163,-1.489 -1.642,-2.258 -3.206,-5.261 -4.334,-11.377 -5.187,-17.384 -0.509,-3.43 -1.167,-6.824 -1.715,-10.244 -0.211,-1.274 -0.414,-2.549 -0.613,-3.825 -0.888,0.182 -1.794,0.298 -2.712,0.346 0.418,4.747 0.736,9.497 1.15,14.25 0.691,6.778 1.175,14.351 -1.875,20.661 -0.098,0.202 -0.408,0.2 -0.507,0 -0.455,-0.86 -0.769,-1.721 -1.047,-2.582 -0.801,-2.516 -1.177,-5.146 -1.285,-7.748 -0.2,-3.453 0.109,-6.895 0.458,-10.331 0.413,-4.753 0.731,-9.503 1.149,-14.25 -0.918,-0.048 -1.823,-0.164 -2.711,-0.346 -0.743,4.695 -1.582,9.37 -2.33,14.07 -0.973,6.759 -2.338,14.24 -6.828,19.641 -0.144,0.173 -0.445,0.095 -0.493,-0.123 -0.232,-0.947 -0.328,-1.86 -0.39,-2.765 -0.167,-2.641 0.107,-5.289 0.633,-7.846 0.643,-3.406 1.777,-6.679 2.949,-9.936 1.549,-4.51 3.006,-9.039 4.556,-13.542 -0.863,-0.276 -1.704,-0.618 -2.518,-1.021 -1.863,4.39 -3.815,8.736 -5.684,13.13 -2.581,6.327 -5.726,13.274 -11.392,17.433 -0.181,0.133 -0.455,-0.015 -0.448,-0.238 0.005,-0.977 0.133,-1.887 0.293,-2.781 1.141,-6.063 4.399,-11.37 7.789,-16.412 1.919,-2.895 3.704,-5.861 5.587,-8.775 0.711,-1.11 1.428,-2.217 2.149,-3.322 -0.754,-0.481 -1.477,-1.019 -2.164,-1.612 -2.887,3.829 -5.849,7.594 -8.742,11.427 -4.047,5.526 -8.79,11.52 -15.306,14.197 -0.208,0.085 -0.438,-0.125 -0.377,-0.34 0.242,-0.948 0.588,-1.802 0.961,-2.632 2.584,-5.618 7.039,-9.99 11.559,-14.073 2.568,-2.351 5.022,-4.804 7.56,-7.182 0.974,-0.92 1.953,-1.836 2.936,-2.748 -0.618,-0.655 -1.182,-1.346 -1.692,-2.068 -3.748,3.033 -7.554,5.984 -11.31,9.018 -5.281,4.395 -11.35,9.076 -18.339,10.109 -0.222,0.033 -0.395,-0.227 -0.283,-0.421 0.466,-0.862 1.011,-1.609 1.575,-2.326 3.883,-4.837 9.279,-8.011 14.667,-10.89 3.069,-1.666 6.053,-3.458 9.1,-5.157 1.18,-0.666 2.365,-1.325 3.553,-1.98 -0.431,-0.772 -0.805,-1.571 -1.118,-2.393 -4.394,2.046 -8.826,3.998 -13.227,6.043 -6.216,2.996 -13.249,6.076 -20.311,5.398 -0.224,-0.022 -0.329,-0.316 -0.174,-0.478 0.665,-0.725 1.377,-1.318 2.101,-1.878 4.959,-3.762 10.983,-5.544 16.928,-7.042 3.393,-0.878 6.734,-1.9 10.113,-2.815 1.322,-0.365 2.647,-0.723 3.974,-1.075 -0.221,-0.839 -0.382,-1.694 -0.481,-2.562 -4.791,0.927 -9.595,1.753 -14.392,2.676 -6.784,1.406 -14.38,2.698 -21.097,0.333 -0.213,-0.075 -0.243,-0.386 -0.053,-0.505 0.823,-0.543 1.661,-0.947 2.503,-1.316 2.464,-1.065 5.083,-1.717 7.704,-2.101 3.472,-0.566 6.986,-0.625 10.498,-0.644 4.912,-0.094 9.81,-0.287 14.716,-0.375 -0.001,-0.056 -0.004,-0.111 -0.004,-0.166 0,-0.809 0.056,-1.608 0.157,-2.397 -4.909,-0.262 -9.805,-0.627 -14.719,-0.895 -6.945,-0.28 -14.666,-0.87 -20.634,-4.793 -0.188,-0.124 -0.142,-0.434 0.071,-0.502 0.934,-0.328 1.848,-0.517 2.758,-0.67 2.658,-0.436 5.367,-0.434 8.014,-0.171 3.519,0.292 6.957,1.088 10.383,1.921 4.822,1.102 9.654,2.106 14.468,3.213 0.194,-0.824 0.444,-1.63 0.748,-2.414 -4.723,-1.451 -9.41,-2.999 -14.137,-4.458 -6.694,-1.961 -14.083,-4.418 -18.95,-9.678 -0.153,-0.165 -0.034,-0.456 0.19,-0.47 0.989,-0.091 1.926,-0.051 2.849,0.021 2.697,0.225 5.336,0.887 7.851,1.787 3.359,1.141 6.517,2.751 9.655,4.394 4.435,2.246 8.904,4.398 13.33,6.647 0.861,-1.676 1.982,-3.225 3.348,-4.592 2.477,-2.476 5.549,-4.154 8.903,-4.915 v -9.438 c 0,-9.922 -4.384,-19.845 -13.845,-26.306 -1.615,1.616 -3,3.462 -3.692,5.308 6.922,4.153 11.537,12.691 11.537,21.921 v 4.153 l -3.23,1.046 v -4.737 c 0,-7.926 -3.264,-14.971 -8.517,-18.386 l -3.954,-2.636 c 1.501,-4.218 4.066,-7.869 7.725,-11.026 11.461,9.241 17.668,17.118 17.668,32.048 v 10.555 c -8.307,0.245 -14.99,7.074 -14.99,15.44 0,8.52 6.931,15.452 15.452,15.452 8.52,0 15.452,-6.932 15.452,-15.452 0,-8.366 -6.684,-15.195 -14.991,-15.44 v -10.555 c 0,-14.933 6.209,-22.81 17.668,-32.048 3.659,3.157 6.224,6.808 7.725,11.026 l -3.958,2.639 c -5.249,3.412 -8.513,10.457 -8.513,18.383 v 4.737 l -3.23,-1.046 v -4.153 c 0,-9.23 4.615,-17.768 11.537,-21.921 -0.692,-1.846 -2.077,-3.692 -3.692,-5.308 -9.461,6.461 -13.845,16.384 -13.845,26.306 v 9.438 c 3.354,0.761 6.426,2.439 8.903,4.915 1.366,1.367 2.487,2.917 3.349,4.593 4.429,-2.251 8.902,-4.405 13.34,-6.652 6.18,-3.24 13.187,-6.601 20.344,-6.198 0.225,0.013 0.341,0.304 0.19,0.47 -0.648,0.752 -1.349,1.374 -2.063,1.963 -4.894,3.962 -10.919,5.979 -16.877,7.711 -3.399,1.012 -6.741,2.165 -10.125,3.213 -1.338,0.422 -2.68,0.837 -4.023,1.246 0.304,0.785 0.555,1.592 0.749,2.417 4.812,-1.107 9.643,-2.11 14.463,-3.212 6.759,-1.646 14.334,-3.207 21.16,-1.081 0.215,0.067 0.257,0.378 0.071,0.502 -0.808,0.573 -1.635,1.006 -2.467,1.404 -2.436,1.152 -5.042,1.897 -7.659,2.374 -3.464,0.689 -6.989,0.872 -10.513,1.016 -4.912,0.268 -9.807,0.633 -14.714,0.895 0.101,0.788 0.157,1.587 0.157,2.396 0,0.055 -0.003,0.11 -0.004,0.165 4.903,0.088 9.799,0.281 14.708,0.375 6.926,0.035 14.638,0.354 20.713,4.062 C 0.245,-0.387 0.211,-0.076 0,0"
           style="fill:#d9ac6b;fill-opacity:1;fill-rule:nonzero;stroke:none"
           id="path91" />
      </g>
      <g
         id="g93"
         transform="matrix(0.35277777,0,0,-0.35277777,-35.488965,137.82359)">
        <path
           d="m 0,0 c 4.491,-3.768 6.877,-6.108 8.143,-8.516 12.6,12.057 14.081,23.441 14.081,31.01 0,4.221 0,5.723 0.43,8.381 l -3.66,1.541 H 18.763 V 21.801 c 0,-9.691 -4.154,-20.306 -10.384,-25.613 -1.154,1.384 -2.307,2.769 -3.923,4.153 6,5.538 8.538,14.538 8.538,23.306 0,3.462 0,7.615 0.462,10.846 L 9.533,36.127 V 21.571 C 9.533,12.648 6.412,5.584 0,0"
           style="fill:#d9ac6b;fill-opacity:1;fill-rule:nonzero;stroke:none"
           id="path95" />
      </g>
      <g
         id="g97"
         transform="matrix(0.35277777,0,0,-0.35277777,-33.754075,149.7509)">
        <path
           d="M 0,0 H 4.146 C 3.47,3.687 3.458,8.624 3.692,18.918 3.617,20.849 3.425,22.351 2.909,23.745 -6.564,15.904 -9.461,11.144 -9.461,3.461 c 0,-4.813 0,-10.802 0.685,-14.452 l 0.018,-0.085 h 3.912 C -5.769,-7.384 -6,-3.23 -5.769,1.846 c 0,8.076 2.308,11.768 6.23,15.46 l 0.462,-0.23 C 0,14.999 0,12.922 0,8.538 Z"
           style="fill:#d9ac6b;fill-opacity:1;fill-rule:nonzero;stroke:none"
           id="path99" />
      </g>
      <g
         id="g101"
         transform="matrix(0.35277777,0,0,-0.35277777,-27.323183,129.88834)">
        <path
           d="m 0,0 c 0,-5.648 -0.936,-10.696 -2.861,-15.432 -2.378,-5.851 -6.222,-11.24 -11.731,-16.456 0.655,-1.584 0.893,-3.273 0.977,-5.476 l 10e-4,-0.014 -10e-4,-0.014 c -0.234,-10.319 -0.223,-15.215 0.454,-18.826 l 0.017,-0.085 h 3.914 c -0.923,3.692 -0.923,9.691 -0.923,12.922 0,3.461 -0.231,6.922 -1.154,9.461 8.999,8.999 13.614,18.69 14.768,30.228 0.231,3 0.462,7.384 1.154,9.922 L 0.383,8.012 C 0,5.571 0,4.154 0,0"
           style="fill:#d9ac6b;fill-opacity:1;fill-rule:nonzero;stroke:none"
           id="path103" />
      </g>
      <g
         id="g105"
         transform="matrix(0.35277777,0,0,-0.35277777,-38.638318,148.77406)">
        <path
           d="m 0,0 v -13.845 h 4.147 c -0.685,3.751 -0.686,9.727 -0.686,14.537 0,8.939 4.143,13.932 12.849,21.115 0.021,0.02 0.042,0.04 0.063,0.059 -1.177,2.402 -3.518,4.683 -8.179,8.585 C 0.021,25.416 -9.461,14.459 -9.461,0 v -17.537 h 4.615 c -0.923,3.692 -0.923,9.23 -0.923,18.46 0,9.461 3.231,17.999 13.845,25.383 1.616,-1.385 3,-3 4.154,-4.385 C 2.538,16.153 0,8.076 0,0"
           style="fill:#d9ac6b;fill-opacity:1;fill-rule:nonzero;stroke:none"
           id="path107" />
      </g>
      <g
         id="g109"
         transform="matrix(0.35277777,0,0,-0.35277777,-42.138685,121.02533)">
        <path
           d="m 0,0 c -2.976,0 -5.759,1.143 -7.835,3.22 -2.076,2.076 -3.22,4.859 -3.22,7.835 0,2.896 1.149,5.653 3.234,7.761 2.101,2.124 4.878,3.293 7.821,3.293 2.943,0 5.72,-1.169 7.821,-3.293 2.085,-2.108 3.234,-4.865 3.234,-7.761 C 11.055,8.079 9.911,5.296 7.835,3.22 5.759,1.143 2.976,0 0,0 m 14.067,11.025 c 0,7.756 -6.31,14.067 -14.067,14.067 -7.757,0 -14.067,-6.311 -14.067,-14.067 0,-7.757 6.31,-14.068 14.067,-14.068 7.757,0 14.067,6.311 14.067,14.068"
           style="fill:#d9ac6b;fill-opacity:1;fill-rule:nonzero;stroke:none"
           id="path111" />
      </g>
      <g
         id="g113"
         transform="matrix(0.35277777,0,0,-0.35277777,-34.235193,132.51957)">
        <path
           d="m 0,0 3.754,-2.502 c 0.87,2.769 1.302,5.774 1.302,9.038 V 21.477 L 1.594,22.919 H 1.364 V 8.843 c 0,-1.846 0.23,-4.615 0.692,-5.999 L 1.594,2.613 c -4.615,4.384 -5.999,8.307 -5.999,13.153 v 8.076 L -8.097,22.647 V 17.612 C -8.097,9.995 -4.995,3.247 0,0"
           style="fill:#d9ac6b;fill-opacity:1;fill-rule:nonzero;stroke:none"
           id="path115" />
      </g>
    </g>
  </g>
</svg>
